<svg xmlns="http://www.w3.org/2000/svg" viewBox="0 0 512 512">
<rect width="512" height="512" fill="#111111"/>
<g transform="translate(91.49,419.50) scale(0.24499,-0.24499)"><path d="M878 1010Q878 1127 827.5 1179.0Q777 1231 661 1231H522V764H669Q776 764 827.0 820.0Q878 876 878 1010ZM979 391Q979 524 912.5 589.0Q846 654 695 654H522V110Q666 104 749 104Q866 104 922.5 175.0Q979 246 979 391ZM34 0V73L207 100V1242L34 1268V1341H685Q952 1341 1079.0 1269.5Q1206 1198 1206 1038Q1206 918 1131.0 831.0Q1056 744 930 717Q1117 698 1213.0 615.5Q1309 533 1309 391Q1309 196 1165.0 95.0Q1021 -6 752 -6L296 0Z" fill="#ffffff"/></g>
</svg>